<?xml version="1.0" encoding="UTF-8"?>
<svg width="80px" height="80px" viewBox="432 0 80 80" version="1.1" xmlns="http://www.w3.org/2000/svg" preserveAspectRatio="xMidYMid">
    <title>LaunchDarkly</title>
    <path fill="#000000" d="M472.956661,79.0267778 C472.289418,79.0281096 471.679832,78.6488121 471.386246,78.0496272 C471.101849,77.4855802 471.162749,76.8089244 471.543287,76.3047216 L490.109083,50.7418546 L457.601492,64.0205862 C457.381161,64.116404 457.143784,64.1668467 456.903529,64.1689032 C456.131249,64.1650389 455.453376,63.6539721 455.237145,62.9125711 C455.015525,62.1871626 455.309003,61.4033625 455.952556,61.0018995 L484.542834,44.1199379 L434.202308,41.2233946 C433.367497,41.0771508 432.758493,40.3521858 432.758493,39.5046626 C432.758493,38.6571394 433.367497,37.9321744 434.202308,37.7859306 L484.569008,34.8981119 L455.970005,18.0161502 C455.326452,17.6146873 455.032974,16.8308872 455.254594,16.1054786 C455.469898,15.3671501 456.143212,14.8568486 456.912254,14.8491466 C457.153759,14.8483259 457.392337,14.902006 457.610216,15.0061881 L490.126532,28.3023687 L471.560736,2.74822631 C471.180198,2.24402351 471.119299,1.56736768 471.403695,1.00332072 C471.688436,0.396769343 472.295359,0.00684659027 472.965385,0 C473.423835,0.00304737742 473.861437,0.191940473 474.178095,0.523471678 L511.178818,37.5154702 C512.273727,38.6121923 512.273727,40.3884084 511.178818,41.4851305 L474.160646,78.5207517 C473.843737,78.8445324 473.409723,79.0267778 472.956661,79.0267778 Z"/>
</svg>
