<?xml version="1.0" encoding="utf-8"?>
<!-- Generator: Adobe Illustrator 19.2.1, SVG Export Plug-In . SVG Version: 6.00 Build 0)  -->
<svg version="1.1" id="Logo" xmlns="http://www.w3.org/2000/svg" xmlns:xlink="http://www.w3.org/1999/xlink" x="0px" y="0px"
	 viewBox="0 0 360 216" style="enable-background:new 0 0 360 216;" xml:space="preserve">
<style type="text/css">
	.st0{fill:#50B848;}
	.st1{fill:#10A3C8;}
	.st2{fill:#3E3935;}
</style>
<g>
	<g>
		<path class="st0" d="M47.1,102.7c1.4-0.7,2.2-1.2,2.7-3.9l2.6-9.4c0.1-0.4,0.4-0.7,1-0.7c0.4,0,1.1,0.4,1.2,0.7l2.1,11.5
			c0.4,1.2,1.2,1.7,2.1,1.7c0.9,0,1.7-0.5,2.1-1.7l2-11.5c0.1-0.4,0.8-0.7,1.2-0.7c0.6,0,0.9,0.3,0.9,0.7l2.6,9.4
			c0.5,2.7,1.3,3.2,2.7,3.9c1.9,1,7.5,1,10.7,1c-0.7-11.8-10.5-21.1-22.5-21.1c-12,0-21.7,9.3-22.5,21.1
			C39.5,103.7,45.3,103.7,47.1,102.7z"/>
		<path class="st1" d="M70.2,107.5c-1.4,0.7-2.2,1.2-2.7,3.9l-2.3,9.4c-0.1,0.4-0.6,0.8-1.2,0.8c-0.5,0-1.1-0.4-1.2-0.8l-2-11.6
			c-0.4-1.3-1.2-1.8-2.1-1.8c-0.9,0-1.7,0.5-2.1,1.8l-2.1,11.6c-0.1,0.4-0.8,0.7-1.2,0.8c-0.6,0-1.1-0.3-1.2-0.8l-2.3-9.4
			c-0.5-2.7-1.3-3.2-2.7-3.9c-1.8-1-7.5-1-11.1-1c0.7,11.8,10.5,21.1,22.5,21.1c11.9,0,21.6-9.2,22.4-20.9
			C77.7,106.7,72.1,106.4,70.2,107.5z"/>
	</g>
	<g>
		<g>
			<path class="st2" d="M112.3,85.7c8.2,0,12.1,4.8,12.1,11c0,4.3-1.9,7.2-4.9,8.4c3.1,1.3,4.9,4.3,4.9,8.4c0,6.2-3.9,11-12.1,11
				H95.5V85.7H112.3z M112,95.2h-7v5.3h6.8c1.9,0,3.1-1,3.1-2.7C114.9,96.3,114,95.2,112,95.2z M111.8,109.9H105v5.3h7
				c2.1,0,2.9-1.1,2.9-2.6C114.9,110.8,113.7,109.9,111.8,109.9z"/>
			<path class="st2" d="M146.2,85.7c5.3,0,10.5,1.6,14.3,5.2l-4.6,8.6c-2.9-3.1-6-4.4-9.7-4.4c-5.9,0-10.1,4.1-10.1,10
				c0,5.9,4.2,10,10.1,10c3.5,0,7.1-1.2,10.3-4.9l4.8,8.7c-4,3.7-9.1,5.7-15,5.7c-11.3,0-19.7-8.4-19.7-19.5
				C126.7,94,135.1,85.7,146.2,85.7z"/>
			<path class="st2" d="M205.3,85.7v38.9h-9.4v-14.7h-14v14.7h-9.5V85.7h9.5v14.7h14V85.7H205.3z"/>
			<path class="st2" d="M213.7,133.4l5.7-12.9l-11.7-23.6h10.4l6,13.2l5.8-13.2h9.4L223,133.4H213.7z"/>
			<path class="st2" d="M268.4,85.7v38.9h-8.9v-3.8c-2,2.8-5.1,4.5-8.9,4.5c-6.4,0-12.2-4.9-12.2-14.6c0-9.7,5.7-14.6,12-14.6
				c4.3,0,7.4,2.1,9.1,4.7V85.7H268.4z M247.5,110.7c0,3.7,2.8,5.8,6.1,5.8c3.2,0,6.1-2.2,6.1-5.8c0-3.7-2.8-5.8-6.1-5.8
				C250.3,104.9,247.5,107.1,247.5,110.7z"/>
			<path class="st2" d="M289.7,96.2c1.1,0,1.8,0.2,2.7,0.4v9.6c-1-0.4-2.4-0.6-3.6-0.6c-4,0-6.3,1.8-6.3,6.7v12.3h-8.9V96.8h8.6v4.8
				C283.4,98.3,285.8,96.2,289.7,96.2z"/>
			<path class="st2" d="M308.8,96.2c8.7,0,15.2,5.7,15.2,14.6c0,8.9-6.5,14.6-15.2,14.6s-15.2-5.7-15.2-14.6
				C293.6,101.8,300.2,96.2,308.8,96.2z M308.8,104.9c-3.2,0-6.1,2.2-6.1,5.8c0,3.7,2.8,5.8,6.1,5.8c3.2,0,6.1-2.2,6.1-5.8
				C314.9,107.1,312,104.9,308.8,104.9z"/>
		</g>
	</g>
</g>
</svg>
